<?xml version="1.0" encoding="UTF-8" standalone="no"?>
<!-- Created with Inkscape (http://www.inkscape.org/) -->

<svg
   width="137.2511mm"
   height="22.692678mm"
   viewBox="0 0 137.2511 22.692678"
   version="1.1"
   id="svg1"
   xml:space="preserve"
   inkscape:version="1.4 (e7c3feb1, 2024-10-09)"
   sodipodi:docname="Acoular_logo.svg"
   xmlns:inkscape="http://www.inkscape.org/namespaces/inkscape"
   xmlns:sodipodi="http://sodipodi.sourceforge.net/DTD/sodipodi-0.dtd"
   xmlns="http://www.w3.org/2000/svg"
   xmlns:svg="http://www.w3.org/2000/svg"><sodipodi:namedview
     id="namedview1"
     pagecolor="#ffcaca"
     bordercolor="#000000"
     borderopacity="0.25"
     inkscape:showpageshadow="2"
     inkscape:pageopacity="0.0"
     inkscape:pagecheckerboard="0"
     inkscape:deskcolor="#d1d1d1"
     inkscape:document-units="mm"
     inkscape:zoom="1.4142136"
     inkscape:cx="214.60691"
     inkscape:cy="37.123106"
     inkscape:window-width="1872"
     inkscape:window-height="1186"
     inkscape:window-x="0"
     inkscape:window-y="25"
     inkscape:window-maximized="0"
     inkscape:current-layer="svg1" /><defs
     id="defs1"><rect
       x="179.25"
       y="83.25"
       width="105.5"
       height="53"
       id="rect25" /><rect
       x="171.5"
       y="67.25"
       width="313.75"
       height="88.5"
       id="rect24" /></defs><text
     xml:space="preserve"
     transform="matrix(1.4810712,0,0,1.4810712,-265.44976,-110.86333)"
     id="text25"
     style="font-size:22.2992px;line-height:0px;font-family:'Times New Roman';-inkscape-font-specification:'Times New Roman, ';text-align:start;letter-spacing:0px;writing-mode:lr-tb;direction:ltr;white-space:pre;shape-inside:url(#rect25);fill:#ffffff;fill-opacity:1"
     inkscape:highlight-color="#ffffff"
     inkscape:label="Acoular"><tspan
       x="179.25"
       y="89.106235"
       id="tspan2"><tspan
         style="font-family:Courier;-inkscape-font-specification:Courier"
         id="tspan1">Ac ular</tspan></tspan></text><g
     id="g3005"
     transform="matrix(0.19419255,0,0,0.19419255,-18.377024,-113.70331)"
     style="fill:#ffffff;fill-opacity:1"
     inkscape:label="Logo"><path
       inkscape:connector-curvature="0"
       id="path2985"
       d="m 350,652.375 c -18.50565,0 -34.63553,10.05685 -43.28125,25 8.64903,14.9303 24.78522,25 43.28125,25 18.49603,0 34.63222,-10.0697 43.28125,-25 -8.64572,-14.94315 -24.7756,-25 -43.28125,-25 z m 0,5 c 15.6128,0 29.36715,7.92619 37.4375,20 -8.07232,12.0617 -21.834,20 -37.4375,20 -15.6035,0 -29.36518,-7.9383 -37.4375,-20 8.07035,-12.07381 21.8247,-20 37.4375,-20 z"
       style="fill:#ffffff;fill-opacity:1;fill-rule:evenodd;stroke:none" /><path
       inkscape:connector-curvature="0"
       id="path3021"
       d="m 350,652.375 c -13.80712,0 -25,11.19288 -25,25 0,13.80712 11.19288,25 25,25 13.80712,0 25,-11.19288 25,-25 0,-13.80712 -11.19288,-25 -25,-25 z m -1.03125,5 c 0.34088,-0.0173 0.68607,0 1.03125,0 11.04569,0 20,8.95431 20,20 0,11.04569 -8.95431,20 -20,20 -11.04569,0 -20,-8.95431 -20,-20 0,-10.70052 8.40135,-19.46434 18.96875,-20 z"
       style="fill:#ffffff;fill-opacity:1;stroke:none" /><path
       inkscape:connector-curvature="0"
       id="path3773"
       d="m 350,607.375 c -10.36904,0 -20.34609,1.67917 -29.6875,4.75 -3.56033,2.63264 -6.75168,5.75169 -9.5,9.21875 11.84533,-5.73752 25.14265,-8.96875 39.1875,-8.96875 14.04485,0 27.34217,3.23123 39.1875,8.96875 -2.74832,-3.46706 -5.93967,-6.58611 -9.5,-9.21875 -9.34141,-3.07083 -19.31846,-4.75 -29.6875,-4.75 z m -2.0625,15 c -17.21938,0.43626 -33.07697,6.33182 -45.9375,16 -0.73086,2.51061 -1.29417,5.09309 -1.625,7.75 13.22235,-11.67396 30.59989,-18.75 49.625,-18.75 19.02511,0 36.40265,7.07604 49.625,18.75 -0.33083,-2.65691 -0.89414,-5.23939 -1.625,-7.75 -13.36901,-10.0389 -29.99438,-16 -48,-16 -0.69036,0 -1.37633,-0.0174 -2.0625,0 z m 2.0625,15 c -19.77922,0 -37.48453,8.843 -49.40625,22.78125 0.3311,2.11302 0.81923,4.17101 1.40625,6.1875 10.9476,-14.55939 28.38122,-23.96875 48,-23.96875 19.61878,0 37.0524,9.40936 48,23.96875 0.58702,-2.01649 1.07515,-4.07448 1.40625,-6.1875 C 387.48453,646.218 369.77922,637.375 350,637.375 Z"
       style="fill:#ffffff;fill-opacity:1;stroke:none" /><circle
       transform="matrix(1.3548387,0,0,1.3548387,-200.40322,-273.98332)"
       id="path3839"
       style="fill:#ffffff;fill-opacity:1;stroke:none"
       cx="406.25"
       cy="702.18359"
       r="5.5357141" /></g></svg>
